<?xml version="1.0" standalone="no"?>
<!DOCTYPE svg PUBLIC "-//W3C//DTD SVG 20010904//EN"
 "http://www.w3.org/TR/2001/REC-SVG-20010904/DTD/svg10.dtd">
<svg version="1.0" xmlns="http://www.w3.org/2000/svg"
 width="862.000000pt" height="862.000000pt" viewBox="0 0 862.000000 862.000000"
 preserveAspectRatio="xMidYMid meet">
<metadata>
Created by potrace 1.11, written by Peter Selinger 2001-2013
</metadata>
<g transform="translate(0.000000,862.000000) scale(0.100000,-0.100000)"
fill="#000000" stroke="none">
<path d="M4241 8572 c-11 -16 -112 -242 -224 -503 -113 -261 -445 -1030 -740
-1709 -294 -679 -639 -1478 -767 -1775 -128 -297 -595 -1379 -1037 -2405 -443
-1026 -821 -1900 -839 -1943 -42 -98 -45 -157 -9 -192 37 -38 95 -33 286 24
418 126 3631 1084 3711 1107 50 14 105 32 121 40 34 18 61 76 52 112 -3 13
-69 169 -147 346 -77 176 -185 424 -239 549 -124 285 -123 283 -161 303 -43
22 -60 18 -437 -92 -178 -53 -340 -96 -360 -96 -27 0 -42 7 -63 31 -15 17 -28
42 -28 54 0 12 108 272 241 577 132 305 326 757 432 1004 116 271 202 460 219
477 20 23 35 29 65 29 72 0 -69 314 1430 -3175 283 -660 524 -1217 536 -1237
11 -20 32 -42 46 -48 18 -7 276 -10 839 -8 l814 3 24 28 c46 53 38 79 -127
462 -83 193 -369 856 -636 1475 -267 619 -639 1483 -828 1920 -336 779 -1602
3714 -1856 4304 -70 164 -140 313 -154 332 -24 32 -30 34 -85 34 -53 0 -61 -3
-79 -28z"/>
</g>
</svg>
