<?xml version="1.0" encoding="utf-8"?>
<!-- Generator: Adobe Illustrator 21.0.2, SVG Export Plug-In . SVG Version: 6.00 Build 0)  -->
<svg version="1.1" id="Layer_1" xmlns="http://www.w3.org/2000/svg" xmlns:xlink="http://www.w3.org/1999/xlink" x="0px" y="0px"
	 viewBox="0 0 841.9 1190.6" style="enable-background:new 0 0 841.9 1190.6;" xml:space="preserve">
<g>
	<g>
		<path d="M425.5,322.5c2,1.3,3.1,3.3,4,5.5c31.8,73.9,63.7,147.8,95.6,221.6c31.9,74,63.8,147.9,95.7,221.9
			c0.7,1.7,1.6,3.4,2.2,5.2c1.6,4.3-0.7,7.9-5.3,8.1c-0.6,0-1.3,0-1.9,0c-26.4,0-52.8,0-79.2,0c-0.6,0-1.3,0-1.9,0
			c-2.8,0-4.7-1.3-5.8-4c-3.1-7.3-6.2-14.5-9.4-21.8c-30.2-70.4-60.5-140.7-90.7-211.1c-1.1-2.6-2.5-4.7-5.5-4.7
			c-3.2-0.1-4.7,2.1-5.8,4.8c-15,34.8-30,69.5-45,104.3c-0.3,0.7-0.6,1.3-0.8,2c-1.4,4.2,1.9,8,6.2,7.2c1.7-0.3,3.3-0.9,4.9-1.3
			c10.3-3,20.5-6,30.8-9.1c0.3-0.1,0.7-0.2,1-0.3c3.6-0.9,6,0.2,7.5,3.6c2.3,5.2,4.5,10.4,6.8,15.6c6.2,14.1,12.3,28.2,18.5,42.2
			c0.3,0.7,0.6,1.3,0.8,2c1.3,3.5-0.1,6.6-3.6,7.8c-2.8,0.9-5.7,1.7-8.5,2.6c-68.4,20.4-136.8,40.8-205.2,61.2
			c-1.4,0.4-3.1,0.6-4.5,0.3c-3.3-0.7-4.9-4.2-3.6-7.5c1.4-3.6,3-7.1,4.5-10.7c29.5-68.3,59-136.7,88.5-205
			c25.3-58.7,50.7-117.3,76-176c8.5-19.6,17-39.3,25.4-58.9c0.9-2.1,2-3.9,3.9-5.3C422.6,322.5,424,322.5,425.5,322.5z"/>
		<path d="M215.3,865.6c2.5-5.5,5.1-11.1,7.6-16.6c4-8.8,7.9-17.5,11.8-26.3c0.9-2.1,2-3.2,4.4-2.9c1.9,0.2,3.8,0.2,5.7,0
			c2-0.1,3.1,0.5,3.9,2.4c3.6,8.2,7.3,16.4,11,24.6c2.6,5.7,5.1,11.5,7.7,17.2c0.3,0.7,0.7,1.3,0.8,2c0.3,1.4-0.3,2.3-1.8,2.3
			c-2.9,0.1-5.8,0-8.6,0c-1.2,0-1.7-0.7-2.2-1.7c-1-2.2-2-4.4-3-6.7c-7.1,0-14.2,0-21.4,0c-1,2.2-2,4.4-3,6.6
			c-0.4,0.9-0.9,1.8-2.1,1.8c-3.1,0-6.3,0-9.4-0.1c-0.4,0-0.8-0.3-1.3-0.4C215.3,867,215.3,866.3,215.3,865.6z M247.5,848.3
			c-1.9-4.4-3.7-8.4-5.7-13.1c-2.1,4.7-3.8,8.8-5.7,13.1C240,848.3,243.5,848.3,247.5,848.3z"/>
		<path d="M626.5,867.2c-0.8,0.7-1.7,1.2-2.9,1.1c-2.3-0.1-4.7-0.1-7,0c-1.7,0.1-2.8-0.7-3.8-2.1c-2.4-3.7-4.9-7.3-7.4-10.9
			c-0.6-0.8-1.1-1.6-1.8-2.6c-3,4.4-6,8.5-8.7,12.8c-1.3,2.1-2.9,3-5.3,2.8c-2-0.2-4,0-5.9,0c-1,0-2.2,0.1-2.5-1
			c-0.2-0.8,0.1-2,0.6-2.7c3.8-5.6,7.6-11.1,11.5-16.6c0.9-1.3,1.8-2.7,2.9-4.2c-1.7-2.5-3.4-5-5.2-7.5c-2.6-3.8-5.2-7.5-7.8-11.3
			c-0.4-0.5-0.7-1-1.1-1.6c-1.4-2.3-0.8-3.6,1.9-3.6c2.3,0,4.7,0.1,7,0c1.7-0.1,2.8,0.7,3.7,2.1c2.5,3.8,5.1,7.6,7.6,11.4
			c0.3,0.5,0.7,1,1.2,1.7c0.6-0.7,1-1.3,1.5-2c2.5-3.7,5-7.3,7.3-11c1-1.6,2.2-2.4,4.2-2.3c2.3,0.1,4.7,0,7,0
			c2.2,0.1,2.9,1.3,1.9,3.2c-0.8,1.4-1.8,2.7-2.7,4c-3.8,5.5-7.7,11.1-11.6,16.7c5.2,7.5,10.3,15,15.4,22.4
			C626.5,866.5,626.5,866.9,626.5,867.2z"/>
		<path d="M318.6,843.9c0-6.9,0-13.9,0-20.8c0-3.1,0.2-3.3,3.4-3.3c5.6,0,11.2,0,16.7,0c13.6,0.1,23.4,10,23.5,23.6
			c0,3.2-0.3,6.3-1.3,9.3c-3.3,9.6-10.4,14.8-20.3,15.5c-6.5,0.5-13.1,0.2-19.7,0.2c-1.7,0-2.2-0.6-2.4-2.3c0-0.6,0-1.3,0-1.9
			C318.6,857.4,318.6,850.6,318.6,843.9z M330.6,856.7c4.1-0.3,8.1,0.5,12.1-0.7c3.6-1.1,5.9-3.7,7.1-7.2c0.9-2.5,0.9-5.1,0.4-7.7
			c-0.7-3.7-2.5-6.8-6-8.5c-4.4-2.2-9-1.4-13.6-1.4C330.6,839.8,330.6,848,330.6,856.7z"/>
		<path d="M385,844.3c0.1-8.4,2.7-15.9,9.8-20.9c8.4-5.9,17.6-6.3,26.6-2c8.9,4.2,12.7,12.1,13.1,21.7c0.3,6.8-1.6,13-6,18.3
			c-4.5,5.2-10.4,7.6-17.2,7.8c-2.9,0.1-6-0.2-8.8-0.9c-9.6-2.3-14.9-8.8-17.1-18.2c-0.2-1-0.4-1.9-0.5-2.9
			C385,846.3,385,845.3,385,844.3z M423,844.1c0-2.6-0.5-5-1.7-7.3c-2.3-4.7-6.2-6.8-11.3-6.8c-5.1,0-9.1,1.9-11.5,6.6
			c-2.6,5.2-2.3,10.4,0.2,15.5c1.1,2.1,2.8,3.7,5,4.8c8.2,3.9,17.1-0.4,18.9-9.3C422.8,846.4,422.8,845.2,423,844.1z"/>
		<path d="M530,867.9c-0.5,0.1-1.2,0.3-1.8,0.4c-2.5,0-5,0-7.6,0c-1.5,0-2.3-0.6-2.9-1.9c-0.9-2.1-1.9-4.2-2.9-6.5
			c-7.1,0-14.2,0-21.4,0c-1,2.1-2,4.1-2.9,6.3c-0.6,1.6-1.6,2.2-3.3,2.1c-2.4-0.1-4.9,0-7.3,0c-2-0.1-2.6-0.9-2-2.8
			c0.2-0.8,0.6-1.5,0.9-2.2c6.1-13.6,12.2-27.2,18.3-40.8c0.9-2,2-3,4.2-2.7c2,0.2,4,0.2,5.9,0c1.9-0.1,2.9,0.5,3.7,2.3
			c2.8,6.6,5.8,13.1,8.8,19.7c3.3,7.4,6.6,14.7,9.9,22.1C530.1,865,530.8,866.3,530,867.9z M504,835.2c-2,4.7-3.8,8.8-5.6,13.1
			c4,0,7.5,0,11.3,0C507.8,843.9,506.1,839.8,504,835.2z"/>
		<path d="M452,854.9c0,4.5,0,8.5,0,12.6c-0.6,0.3-1.1,0.7-1.5,0.7c-2.8,0.1-5.6,0.1-8.4,0.1c-1.2,0-1.8-0.8-1.9-1.9
			c-0.1-0.6-0.1-1.3-0.1-1.9c0-13.7,0-27.4,0-41.1c0-0.3,0-0.5,0-0.8c0.1-2.4,0.5-2.8,2.8-2.9c2.3,0,4.7-0.1,7-0.1
			c4.6,0,9.2-0.1,13.8,0c8.5,0.2,15.4,5.4,17.1,13c2.9,13-6.1,22.4-17.2,22.2C459.9,854.8,456.2,854.9,452,854.9z M452.2,843.7
			c4.2,0,8.3,0.3,12.2-0.1c3.3-0.3,5.3-2.9,5.3-6.1c0-3.2-2-5.9-5.3-6.1c-4-0.3-8-0.1-12.2-0.1C452.2,835.4,452.2,839.4,452.2,843.7
			z"/>
		<path d="M310.9,820.2c0.1,1,0.2,1.8,0.2,2.6c0,8.5,0,17.1,0,25.6c0,3.8-0.9,7.5-2.7,10.9c-2.4,4.5-6.2,7.4-11.1,8.8
			c-4.5,1.3-9,1.4-13.6,0.3c-8.9-2.2-15-9.2-15.3-18.5c-0.3-9.3-0.1-18.5-0.1-27.8c0-1.9,0.5-2.4,2.4-2.4c2.2-0.1,4.3,0,6.5,0
			c2.5,0,2.9,0.5,2.9,3.1c0,7.9,0,15.8,0,23.8c0,1,0,2,0.1,3c0.7,7.2,9,11.1,15.1,7.2c2.3-1.5,3.4-3.7,3.8-6.3
			c0.2-1.5,0.3-3,0.3-4.6c0-7.6,0-15.3,0-22.9c0-2.9,0.3-3.2,3.3-3.2c1.9,0,3.8,0,5.7,0C309.1,819.8,309.9,820,310.9,820.2z"/>
		<path d="M555.4,835c2.1-3,4-5.9,5.9-8.7c1.1-1.6,2.1-3.1,3.1-4.7c0.8-1.3,2-2,3.6-1.9c2.3,0.1,4.7,0,7,0c2.6,0,3.4,1.4,1.9,3.6
			c-2.2,3.3-4.5,6.5-6.8,9.8c-2.4,3.5-4.8,6.9-7.4,10.6c1,1.4,2,2.9,3,4.4c3.6,5.2,7.2,10.3,10.8,15.5c0.4,0.6,0.9,1.2,1.2,1.8
			c0.7,1.7,0,2.8-1.8,2.9c-2.7,0.1-5.4,0-8.1,0c-1.5,0-2.4-0.8-3.2-2c-2.6-4-5.4-7.9-8-11.8c-0.3-0.4-0.6-0.9-1.2-1.6
			c-0.7,0.9-1.2,1.6-1.8,2.4c-2.4,3.6-4.9,7.1-7.3,10.7c-1.1,1.7-2.4,2.5-4.4,2.4c-2.2-0.1-4.3,0-6.5,0c-1,0-2,0.1-2.6-0.9
			c-0.7-1.2,0.1-2.1,0.7-3c1.7-2.5,3.5-5,5.2-7.5c3-4.4,6-8.7,9.1-13.1c-2-2.9-3.9-5.7-5.9-8.5c-2.6-3.7-5.1-7.4-7.7-11.1
			c-0.4-0.6-0.8-1.2-1.1-1.9c-0.5-1.4,0.1-2.5,1.5-2.5c3-0.1,5.9-0.1,8.9,0c1.3,0,2,0.9,2.7,2c2.4,3.7,4.9,7.3,7.4,11
			C554.1,833.4,554.7,834.1,555.4,835z"/>
		<path d="M367.7,843.9c0-7,0-14,0-21.1c0-2.9,0.2-3,3.1-3.1c2,0,4,0,5.9,0c2.4,0,2.7,0.4,2.8,2.9c0,1.4,0,2.7,0,4.1
			c0,12.5,0,25,0,37.5c0,0.6,0,1.3,0,1.9c0,1.4-0.8,2.2-2.2,2.2c-2.2,0-4.3,0-6.5,0c-2.9,0-3.1-0.2-3.1-3.1
			C367.7,858.1,367.7,851,367.7,843.9z"/>
	</g>
</g>
</svg>
