<?xml version="1.0" encoding="utf-8"?>
<!-- Generator: Adobe Illustrator 21.0.2, SVG Export Plug-In . SVG Version: 6.00 Build 0)  -->
<svg version="1.1" id="Layer_1" xmlns="http://www.w3.org/2000/svg" xmlns:xlink="http://www.w3.org/1999/xlink" x="0px" y="0px"
	 viewBox="0 0 1190.6 841.9" style="enable-background:new 0 0 1190.6 841.9;" xml:space="preserve">
<style type="text/css">
	.st0{fill:#FFFFFF;}
</style>
<path class="st0" d="M787.2,442.3c-0.4,1-1.2,1.3-2.2,1.3c-2.6-0.1-5.1-0.1-7.7,0c-1.1,0-1.8-0.4-2.4-1.3c-2.7-4.1-5.5-8.1-8.2-12.1
	c-0.2-0.4-0.5-0.7-0.8-1.2c-0.3,0.3-0.5,0.6-0.7,0.8c-2.8,4.1-5.6,8.2-8.4,12.4c-0.6,0.9-1.3,1.4-2.4,1.3c-2.6-0.1-5.1,0-7.7-0.1
	c-0.6,0-1.6-0.3-1.8-0.8c-0.2-0.6-0.1-1.6,0.3-2.2c4.4-6.5,8.9-12.9,13.4-19.3c0.1-0.2,0.2-0.3,0.4-0.6c-2.3-3.4-4.7-6.7-7-10.1
	c-2.1-3-4.2-6-6.3-9.1c-0.5-0.8-0.9-1.7-0.3-2.4c0.4-0.5,1.3-0.7,2-0.8c2.5-0.1,5,0,7.6,0c1,0,1.6,0.4,2.2,1.2
	c2.7,4.1,5.4,8.1,8.1,12.2c0.2,0.3,0.5,0.6,0.8,1.1c0.7-1,1.4-2,2-2.9c2.3-3.4,4.6-6.8,6.9-10.3c0.6-1,1.4-1.3,2.5-1.3
	c2.4,0.1,4.9,0,7.3,0c0.8,0,1.6,0,2,0.9c0.4,0.9,0.1,1.6-0.4,2.3c-4.2,6-8.3,11.9-12.5,17.9c-0.7,1-0.7,1.6,0,2.6
	c4.6,6.4,9.1,12.9,13.6,19.4C787.2,441.6,787.2,441.9,787.2,442.3z"/>
<path class="st0" d="M499.4,420.8c0-6.8,0-13.6,0-20.4c0-1.7,0.4-2.2,2.1-2.2c6.1,0,12.2-0.2,18.2,0.1c11.1,0.5,19.3,8.6,20.3,19.6
	c0.4,4.7-0.1,9.3-2.1,13.5c-3.3,6.9-8.8,10.7-16.3,11.7c-3.3,0.4-6.7,0.3-10.1,0.3c-3.2,0-6.4,0-9.6,0c-2.2,0-2.5-0.3-2.5-2.5
	C499.4,434.3,499.4,427.5,499.4,420.8z M510.5,432.7c2.9,0,5.6,0.1,8.4,0c5.2-0.3,9-3.5,10-8.6c0.3-1.4,0.4-2.9,0.3-4.3
	c-0.2-5.3-3.3-9.7-8.2-10.5c-3.4-0.6-7-0.4-10.5-0.6C510.5,416.9,510.5,424.7,510.5,432.7z"/>
<path class="st0" d="M585.3,444.5c-6.8-0.1-12.5-1.6-17-6c-3.7-3.6-5.8-8.1-6.5-13.2c-0.9-6,0-11.8,3.1-17.1
	c4-6.8,10.2-10.2,17.9-10.7c6.1-0.4,11.8,0.8,16.6,4.8c6.2,5.1,8.7,12,8.4,19.9c-0.2,5.7-2,10.8-5.7,15.2c-3.5,4-8,6.2-13.2,6.9
	C587.5,444.4,586,444.4,585.3,444.5z M597.1,421c-0.2-1.5-0.3-2.9-0.7-4.3c-1.2-4.6-3.9-7.8-8.7-8.7c-4.9-0.9-9.3-0.1-12.6,4.1
	c-2.4,3.1-3,6.7-2.7,10.4c0.5,6.5,4.2,10.6,10.4,11.4c5.9,0.8,11.5-1.5,13.5-8.4C596.7,424.1,596.8,422.5,597.1,421z"/>
<path class="st0" d="M691.7,443.5c-1.2,0-2.5-0.1-3.7,0c-1.2,0.1-1.8-0.4-2.3-1.5c-0.8-1.9-1.7-3.7-2.5-5.6
	c-0.3-0.6-0.6-0.9-1.3-0.9c-6.1,0-12.2,0-18.2,0c-0.7,0-1.1,0.2-1.3,0.9c-0.8,1.9-1.8,3.8-2.6,5.8c-0.4,0.9-1,1.3-2,1.3
	c-2.6,0-5.2,0-7.8,0c-1.8,0-2.4-1-1.6-2.6c6.2-13.8,12.4-27.6,18.6-41.4c0.4-0.9,1-1.3,2-1.3c2.6,0,5.2,0,7.8,0c1,0,1.6,0.4,2,1.3
	c6.2,13.8,12.3,27.5,18.5,41.3c0.8,1.8,0.2,2.7-1.7,2.7C694.2,443.5,693,443.5,691.7,443.5z M678.2,425c-1.8-4.1-3.6-8.2-5.4-12.5
	c-1.9,4.3-3.6,8.3-5.4,12.5C671.1,425,674.6,425,678.2,425z"/>
<path class="st0" d="M446.3,443.5c-1.2,0-2.4-0.1-3.6,0c-1.2,0.1-1.9-0.4-2.4-1.6c-0.7-1.8-1.6-3.6-2.4-5.5c-0.3-0.7-0.6-1-1.4-1
	c-6,0-12.1,0-18.1,0c-0.8,0-1.1,0.2-1.4,0.9c-0.8,1.9-1.7,3.8-2.5,5.7c-0.4,1-1.1,1.4-2.2,1.4c-2.5,0-5,0-7.4,0
	c-2,0-2.6-0.9-1.7-2.8c5.7-12.8,11.5-25.6,17.2-38.5c0.4-0.9,0.9-1.9,1.3-2.8c0.3-0.9,0.9-1.2,1.8-1.2c2.7,0,5.4,0,8.2,0
	c1.1,0,1.6,0.7,2,1.6c4.3,9.5,8.5,19.1,12.8,28.6c1.8,4.1,3.7,8.2,5.5,12.3c0.8,1.8,0.2,2.7-1.8,2.7
	C448.9,443.5,447.6,443.5,446.3,443.5z M433,425c-1.8-4.2-3.6-8.2-5.4-12.5c-1.9,4.3-3.6,8.3-5.4,12.5C425.7,425,429.2,425,433,425z
	"/>
<path class="st0" d="M624.2,431.1c0,3.4,0,6.7,0,10c0,2.1-0.4,2.4-2.5,2.4c-2.2,0-4.4,0-6.6,0c-1.5,0-2-0.5-2-1.9
	c0-13.8,0-27.7,0-41.5c0-1.4,0.5-1.8,1.9-1.9c6.7,0,13.4-0.1,20-0.1c6.9,0,13,4.1,15.4,10.1c2.5,6.2,1,13.7-3.7,18.2
	c-3.5,3.4-7.8,4.6-12.6,4.6C630.9,431.1,627.7,431.1,624.2,431.1z M624.2,420.7c3.8,0,7.5,0.1,11.2,0c3-0.1,5.2-2.7,5.2-5.8
	c0-3.1-2-5.7-5-5.9c-3.7-0.2-7.5,0-11.2,0c-0.1,0-0.1,0.1-0.2,0.2C624.2,412.9,624.2,416.7,624.2,420.7z"/>
<path class="st0" d="M492.3,413.2c0,3.8,0,7.6,0,11.4c-0.1,12.3-8.1,20.1-20.4,19.8c-5.2-0.1-9.9-1.5-13.8-5.2
	c-4.1-3.9-5.8-8.9-5.9-14.3c-0.1-8.2,0-16.4,0-24.6c0-1.6,0.4-2,2-2c2.3,0,4.6,0,7,0c1.6,0,2,0.5,2,2.1c0,8,0,16.1,0,24.1
	c0,3.4,1,6.4,4.1,8.3c3.6,2.2,9.1,1.6,11.6-1.3c1.9-2.1,2.3-4.8,2.3-7.5c0-7.8,0-15.5,0-23.3c0-2.2,0.3-2.5,2.5-2.5
	c2.2,0,4.4,0,6.6,0c1.4,0,1.9,0.5,1.9,1.9C492.3,404.5,492.3,408.9,492.3,413.2z"/>
<path class="st0" d="M720.7,412.7c2.4-3.5,4.7-6.9,6.9-10.3c0.7-1,1.4-2,2-3c0.5-0.8,1.2-1.2,2.2-1.2c2.6,0,5.2,0,7.8,0
	c0.6,0,1.5,0.3,1.7,0.8c0.2,0.6,0.2,1.6-0.2,2.2c-1.7,2.7-3.6,5.3-5.4,7.9c-2.4,3.5-4.9,7-7.4,10.5c-0.5,0.7-0.6,1.2,0,2
	c4.3,6.1,8.6,12.2,12.8,18.4c0.2,0.3,0.5,0.6,0.7,1c0.6,1.3-0.1,2.5-1.5,2.5c-2.9,0-5.8,0.1-8.6,0c-0.6,0-1.4-0.6-1.8-1.2
	c-2.8-4-5.6-8.1-8.3-12.2c-0.2-0.4-0.5-0.7-0.9-1.2c-0.3,0.5-0.6,0.8-0.9,1.2c-2.7,4-5.5,8-8.2,12.1c-0.6,0.9-1.3,1.3-2.5,1.3
	c-2.4-0.1-4.9,0-7.3,0c-0.8,0-1.8,0.1-2.2-0.8c-0.4-0.9-0.1-1.7,0.5-2.4c4.3-6.2,8.6-12.4,12.9-18.6c0.2-0.3,0.4-0.7,0.7-1
	c-3.5-5-6.9-10-10.4-15c-1-1.4-2.1-2.8-2.9-4.3c-0.4-0.6-0.5-1.7-0.3-2.3c0.2-0.5,1.2-0.8,1.9-0.8c2.6-0.1,5.1,0,7.7,0
	c0.9,0,1.5,0.3,2,1.1C714.7,403.7,717.6,408.1,720.7,412.7z"/>
<path class="st0" d="M556.2,420.8c0,6.8,0,13.6,0,20.4c0,1.9-0.4,2.3-2.2,2.3c-2.3,0-4.6,0-6.8,0c-1.4,0-1.9-0.5-1.9-1.9
	c0-13.8,0-27.7,0-41.5c0-1.4,0.5-1.9,2-1.9c2.3,0,4.6,0,7,0c1.6,0,2,0.4,2,2.1C556.2,407.2,556.2,414,556.2,420.8z"/>
</svg>
